<svg xmlns="http://www.w3.org/2000/svg" viewBox="0 0 420 344" width="420" height="344" font-family="system-ui, -apple-system, Segoe UI, sans-serif" font-size="12">
<style>svg{--bg:#fcfcfb;--ink:#0b0b0b;--muted:#52514e;--grid:#e4e3df;--a:#2a78d6;--b:#eb6834;--c:#1baf7a;--pa:#dbe8f9;--pb:#fde6da;--panel:#f1f0ec;--g1:#a3a29c;--g2:#d6d5cf;}@media (prefers-color-scheme: dark){svg{--bg:#1a1a19;--ink:#ffffff;--muted:#c3c2b7;--grid:#3a3936;--a:#3987e5;--b:#d95926;--c:#199e70;--pa:#22385a;--pb:#4a2a1b;--panel:#262624;--g1:#76756f;--g2:#4b4a46;}}.t{fill:var(--ink)}.m{fill:var(--muted)}.k{fill:var(--bg)}</style>
<defs><marker id="arrow" viewBox="0 0 10 10" refX="9" refY="5" markerWidth="7" markerHeight="7" orient="auto-start-reverse"><path d="M0,0 L10,5 L0,10 z" fill="var(--muted)"/></marker></defs>
<rect width="420" height="344" fill="var(--bg)"/>
<rect x="84" y="10" width="12" height="12" rx="2" fill="var(--a)"/>
<text class="t" x="102.0" y="20.0" font-size="11.5">reads in the ceiling</text>
<rect x="244" y="10" width="12" height="12" rx="2" fill="var(--pa)"/>
<text class="t" x="262.0" y="20.0" font-size="11.5">other reads</text>
<rect x="84" y="28" width="12" height="12" rx="2" fill="var(--g1)"/>
<text class="t" x="102.0" y="38.0" font-size="11.5">writes</text>
<rect x="244" y="28" width="12" height="12" rx="2" fill="var(--g2)"/>
<text class="t" x="262.0" y="38.0" font-size="11.5">replies to the user</text>
<text class="t" x="0.0" y="64.0" font-size="12" font-weight="700">τ²-bench, nine agents</text>
<text class="m" x="76.0" y="86.5" text-anchor="end" font-size="11.5">retail</text>
<rect x="84.0" y="74" width="107.5" height="17" fill="var(--a)"/>
<text class="k" x="88.0" y="86.5" font-size="10.5">34.2</text>
<rect x="193.5" y="74" width="36.8" height="17" fill="var(--pa)"/>
<text class="t" x="197.5" y="86.5" font-size="10.5">12.1</text>
<rect x="232.3" y="74" width="42.8" height="17" fill="var(--g1)"/>
<text class="t" x="236.3" y="86.5" font-size="10.5">14.0</text>
<rect x="277.2" y="74" width="124.8" height="17" fill="var(--g2)"/>
<text class="t" x="281.2" y="86.5" font-size="10.5">39.6</text>
<text class="m" x="76.0" y="108.5" text-anchor="end" font-size="11.5">airline</text>
<rect x="84.0" y="96" width="92.5" height="17" fill="var(--a)"/>
<text class="k" x="88.0" y="108.5" font-size="10.5">29.5</text>
<rect x="178.5" y="96" width="53.7" height="17" fill="var(--pa)"/>
<text class="t" x="182.5" y="108.5" font-size="10.5">17.4</text>
<rect x="234.2" y="96" width="38.7" height="17" fill="var(--g1)"/>
<text class="t" x="238.2" y="108.5" font-size="10.5">12.7</text>
<rect x="274.9" y="96" width="127.1" height="17" fill="var(--g2)"/>
<text class="t" x="278.9" y="108.5" font-size="10.5">40.3</text>
<text class="m" x="76.0" y="130.5" text-anchor="end" font-size="11.5">telecom</text>
<rect x="84.0" y="118" width="77.0" height="17" fill="var(--a)"/>
<text class="k" x="88.0" y="130.5" font-size="10.5">24.7</text>
<rect x="163.0" y="118" width="28.7" height="17" fill="var(--pa)"/>
<text class="t" x="167.0" y="130.5" font-size="10.5">9.6</text>
<rect x="193.7" y="118" width="31.9" height="17" fill="var(--g1)"/>
<text class="t" x="197.7" y="130.5" font-size="10.5">10.6</text>
<rect x="227.5" y="118" width="174.5" height="17" fill="var(--g2)"/>
<text class="t" x="231.5" y="130.5" font-size="10.5">55.2</text>
<text class="t" x="76.0" y="152.5" text-anchor="end" font-size="11.5" font-weight="700">all</text>
<rect x="84.0" y="140" width="90.8" height="17" fill="var(--a)"/>
<text class="k" x="88.0" y="152.5" font-size="10.5">29.0</text>
<rect x="176.8" y="140" width="36.4" height="17" fill="var(--pa)"/>
<text class="t" x="180.8" y="152.5" font-size="10.5">12.0</text>
<rect x="215.2" y="140" width="37.0" height="17" fill="var(--g1)"/>
<text class="t" x="219.2" y="152.5" font-size="10.5">12.2</text>
<rect x="254.2" y="140" width="147.8" height="17" fill="var(--g2)"/>
<text class="t" x="258.2" y="152.5" font-size="10.5">46.8</text>
<text class="t" x="0.0" y="176.0" font-size="12" font-weight="700">Six more benchmarks</text>
<text class="m" x="76.0" y="198.5" text-anchor="end" font-size="11.5">τ-bench</text>
<rect x="84.0" y="186" width="89.0" height="17" fill="var(--a)"/>
<text class="k" x="88.0" y="198.5" font-size="10.5">28.4</text>
<rect x="175.0" y="186" width="34.2" height="17" fill="var(--pa)"/>
<text class="t" x="179.0" y="198.5" font-size="10.5">11.3</text>
<rect x="211.2" y="186" width="40.3" height="17" fill="var(--g1)"/>
<text class="t" x="215.2" y="198.5" font-size="10.5">13.2</text>
<rect x="253.4" y="186" width="148.6" height="17" fill="var(--g2)"/>
<text class="t" x="257.4" y="198.5" font-size="10.5">47.0</text>
<text class="m" x="76.0" y="220.5" text-anchor="end" font-size="11.5">BFCL</text>
<rect x="84.0" y="208" width="40.2" height="17" fill="var(--a)"/>
<text class="k" x="88.0" y="220.5" font-size="10.5">13.2</text>
<rect x="126.2" y="208" width="56.5" height="17" fill="var(--pa)"/>
<text class="t" x="130.2" y="220.5" font-size="10.5">18.3</text>
<rect x="184.7" y="208" width="105.7" height="17" fill="var(--g1)"/>
<text class="t" x="188.7" y="220.5" font-size="10.5">33.7</text>
<rect x="292.4" y="208" width="109.6" height="17" fill="var(--g2)"/>
<text class="t" x="296.4" y="220.5" font-size="10.5">34.9</text>
<text class="m" x="76.0" y="242.5" text-anchor="end" font-size="11.5">AgentDojo</text>
<rect x="84.0" y="230" width="68.8" height="17" fill="var(--a)"/>
<text class="k" x="88.0" y="242.5" font-size="10.5">22.1</text>
<rect x="154.8" y="230" width="108.2" height="17" fill="var(--pa)"/>
<text class="t" x="158.8" y="242.5" font-size="10.5">34.4</text>
<rect x="265.0" y="230" width="50.9" height="17" fill="var(--g1)"/>
<text class="t" x="269.0" y="242.5" font-size="10.5">16.5</text>
<rect x="317.8" y="230" width="84.2" height="17" fill="var(--g2)"/>
<text class="t" x="321.8" y="242.5" font-size="10.5">26.9</text>
<text class="m" x="76.0" y="264.5" text-anchor="end" font-size="11.5">WorkBench</text>
<rect x="84.0" y="252" width="9.2" height="17" fill="var(--a)"/>
<rect x="95.2" y="252" width="134.2" height="17" fill="var(--pa)"/>
<text class="t" x="99.2" y="264.5" font-size="10.5">42.6</text>
<rect x="231.4" y="252" width="83.0" height="17" fill="var(--g1)"/>
<text class="t" x="235.4" y="264.5" font-size="10.5">26.6</text>
<rect x="316.4" y="252" width="85.6" height="17" fill="var(--g2)"/>
<text class="t" x="320.4" y="264.5" font-size="10.5">27.4</text>
<text class="m" x="76.0" y="286.5" text-anchor="end" font-size="11.5">DTap-Bench</text>
<rect x="84.0" y="274" width="32.2" height="17" fill="var(--a)"/>
<text class="k" x="88.0" y="286.5" font-size="10.5">10.7</text>
<rect x="118.2" y="274" width="53.7" height="17" fill="var(--pa)"/>
<text class="t" x="122.2" y="286.5" font-size="10.5">17.4</text>
<rect x="173.9" y="274" width="189.7" height="17" fill="var(--g1)"/>
<text class="t" x="177.9" y="286.5" font-size="10.5">59.9</text>
<rect x="365.6" y="274" width="36.4" height="17" fill="var(--g2)"/>
<text class="t" x="369.6" y="286.5" font-size="10.5">12.0</text>
<text class="m" x="76.0" y="308.5" text-anchor="end" font-size="11.5">MCPMark</text>
<rect x="84.0" y="296" width="20.4" height="17" fill="var(--a)"/>
<rect x="106.4" y="296" width="116.2" height="17" fill="var(--pa)"/>
<text class="t" x="110.4" y="308.5" font-size="10.5">36.9</text>
<rect x="224.6" y="296" width="161.0" height="17" fill="var(--g1)"/>
<text class="t" x="228.6" y="308.5" font-size="10.5">50.9</text>
<rect x="387.7" y="296" width="14.3" height="17" fill="var(--g2)"/>
<text class="m" x="84.0" y="336.0" text-anchor="middle" font-size="10.5">0%</text>
<text class="m" x="164.0" y="336.0" text-anchor="middle" font-size="10.5">25%</text>
<text class="m" x="244.0" y="336.0" text-anchor="middle" font-size="10.5">50%</text>
<text class="m" x="324.0" y="336.0" text-anchor="middle" font-size="10.5">75%</text>
<text class="m" x="404.0" y="336.0" text-anchor="middle" font-size="10.5">100%</text>
</svg>
